<svg width="1280" height="720" viewBox="0 0 1280 720" xmlns="http://www.w3.org/2000/svg">
  <defs>
    <linearGradient id="bg4" x1="0" y1="0" x2="1" y2="1">
      <stop offset="0%" stop-color="#fffaf0"/>
      <stop offset="100%" stop-color="#ffe9cc"/>
    </linearGradient>
  </defs>
  <rect width="1280" height="720" fill="url(#bg4)"/>
  <rect x="30" y="24" width="1220" height="78" rx="14" fill="#7c2d12"/>
  <text x="58" y="72" font-family="Verdana, sans-serif" font-size="30" fill="#ffffff">Course Catalog</text>

  <rect x="30" y="120" width="1220" height="66" rx="12" fill="#ffffff" stroke="#f59e0b"/>
  <rect x="54" y="135" width="220" height="36" rx="8" fill="#fff7ed" stroke="#fdba74"/>
  <text x="70" y="158" font-family="Verdana, sans-serif" font-size="14" fill="#9a3412">Category</text>
  <rect x="286" y="135" width="220" height="36" rx="8" fill="#fff7ed" stroke="#fdba74"/>
  <text x="302" y="158" font-family="Verdana, sans-serif" font-size="14" fill="#9a3412">Level</text>
  <rect x="518" y="135" width="220" height="36" rx="8" fill="#fff7ed" stroke="#fdba74"/>
  <text x="534" y="158" font-family="Verdana, sans-serif" font-size="14" fill="#9a3412">Price Range</text>

  <rect x="30" y="206" width="288" height="220" rx="12" fill="#ffffff" stroke="#fed7aa"/>
  <rect x="342" y="206" width="288" height="220" rx="12" fill="#ffffff" stroke="#fed7aa"/>
  <rect x="654" y="206" width="288" height="220" rx="12" fill="#ffffff" stroke="#fed7aa"/>
  <rect x="966" y="206" width="288" height="220" rx="12" fill="#ffffff" stroke="#fed7aa"/>

  <rect x="30" y="450" width="288" height="220" rx="12" fill="#ffffff" stroke="#fed7aa"/>
  <rect x="342" y="450" width="288" height="220" rx="12" fill="#ffffff" stroke="#fed7aa"/>
  <rect x="654" y="450" width="288" height="220" rx="12" fill="#ffffff" stroke="#fed7aa"/>
  <rect x="966" y="450" width="288" height="220" rx="12" fill="#ffffff" stroke="#fed7aa"/>

  <text x="54" y="250" font-family="Verdana, sans-serif" font-size="17" fill="#111827">React Fundamentals</text>
  <rect x="54" y="264" width="90" height="24" rx="12" fill="#dcfce7"/>
  <text x="99" y="281" text-anchor="middle" font-family="Verdana, sans-serif" font-size="11" fill="#166534">Beginner</text>
  <text x="54" y="308" font-family="Verdana, sans-serif" font-size="14" fill="#4b5563">12 lessons • 8 hours</text>

  <text x="366" y="250" font-family="Verdana, sans-serif" font-size="17" fill="#111827">Advanced Hooks</text>
  <rect x="366" y="264" width="116" height="24" rx="12" fill="#e0e7ff"/>
  <text x="424" y="281" text-anchor="middle" font-family="Verdana, sans-serif" font-size="11" fill="#3730a3">Intermediate</text>

  <text x="678" y="250" font-family="Verdana, sans-serif" font-size="17" fill="#111827">API Integration</text>
  <rect x="678" y="264" width="102" height="24" rx="12" fill="#fee2e2"/>
  <text x="729" y="281" text-anchor="middle" font-family="Verdana, sans-serif" font-size="11" fill="#991b1b">Advanced</text>

  <text x="990" y="250" font-family="Verdana, sans-serif" font-size="17" fill="#111827">UI Patterns</text>
  <rect x="990" y="264" width="90" height="24" rx="12" fill="#dcfce7"/>
  <text x="1035" y="281" text-anchor="middle" font-family="Verdana, sans-serif" font-size="11" fill="#166534">Beginner</text>
</svg>
