<svg width="1280" height="720" viewBox="0 0 1280 720" xmlns="http://www.w3.org/2000/svg">
  <defs>
    <linearGradient id="bg3" x1="0" y1="0" x2="1" y2="1">
      <stop offset="0%" stop-color="#f6f7fb"/>
      <stop offset="100%" stop-color="#ebeef7"/>
    </linearGradient>
  </defs>
  <rect width="1280" height="720" fill="url(#bg3)"/>
  <rect x="24" y="24" width="1232" height="72" rx="12" fill="#2f3b59"/>
  <text x="56" y="68" font-family="Verdana, sans-serif" font-size="28" fill="#ffffff">Mini Issue Tracker</text>

  <rect x="24" y="116" width="400" height="580" rx="12" fill="#ffffff" stroke="#cdd3e3"/>
  <rect x="440" y="116" width="400" height="580" rx="12" fill="#ffffff" stroke="#cdd3e3"/>
  <rect x="856" y="116" width="400" height="580" rx="12" fill="#ffffff" stroke="#cdd3e3"/>

  <text x="48" y="152" font-family="Verdana, sans-serif" font-size="21" fill="#7c3aed">Todo</text>
  <text x="464" y="152" font-family="Verdana, sans-serif" font-size="21" fill="#2563eb">In Progress</text>
  <text x="880" y="152" font-family="Verdana, sans-serif" font-size="21" fill="#059669">Done</text>

  <rect x="48" y="172" width="352" height="110" rx="10" fill="#faf5ff" stroke="#e9d5ff"/>
  <text x="68" y="206" font-family="Verdana, sans-serif" font-size="16" fill="#1f2937">#102 Add dark mode toggle</text>
  <text x="68" y="232" font-family="Verdana, sans-serif" font-size="13" fill="#4b5563">Priority: Medium</text>
  <rect x="68" y="244" width="92" height="24" rx="12" fill="#ede9fe"/>
  <text x="114" y="260" text-anchor="middle" font-family="Verdana, sans-serif" font-size="11" fill="#5b21b6">Frontend</text>

  <rect x="48" y="298" width="352" height="110" rx="10" fill="#faf5ff" stroke="#e9d5ff"/>
  <text x="68" y="332" font-family="Verdana, sans-serif" font-size="16" fill="#1f2937">#108 Fix email validation</text>
  <text x="68" y="358" font-family="Verdana, sans-serif" font-size="13" fill="#4b5563">Priority: High</text>

  <rect x="464" y="172" width="352" height="110" rx="10" fill="#eff6ff" stroke="#bfdbfe"/>
  <text x="484" y="206" font-family="Verdana, sans-serif" font-size="16" fill="#1f2937">#110 User search debounce</text>
  <text x="484" y="232" font-family="Verdana, sans-serif" font-size="13" fill="#4b5563">Assignee: Arun</text>

  <rect x="880" y="172" width="352" height="110" rx="10" fill="#ecfdf5" stroke="#a7f3d0"/>
  <text x="900" y="206" font-family="Verdana, sans-serif" font-size="16" fill="#1f2937">#095 Navbar refactor</text>
  <text x="900" y="232" font-family="Verdana, sans-serif" font-size="13" fill="#4b5563">Completed yesterday</text>

  <rect x="48" y="580" width="1184" height="96" rx="12" fill="#ffffff" stroke="#cdd3e3"/>
  <text x="72" y="618" font-family="Verdana, sans-serif" font-size="18" fill="#111827">Add New Issue</text>
  <rect x="248" y="596" width="320" height="40" rx="8" fill="#f9fafb" stroke="#d1d5db"/>
  <text x="264" y="621" font-family="Verdana, sans-serif" font-size="14" fill="#6b7280">Issue title...</text>
  <rect x="584" y="596" width="180" height="40" rx="8" fill="#f9fafb" stroke="#d1d5db"/>
  <text x="600" y="621" font-family="Verdana, sans-serif" font-size="14" fill="#6b7280">Status</text>
  <rect x="780" y="596" width="148" height="40" rx="8" fill="#2f3b59"/>
  <text x="854" y="621" text-anchor="middle" font-family="Verdana, sans-serif" font-size="14" fill="#ffffff">Create</text>
</svg>
