<svg width="1280" height="720" viewBox="0 0 1280 720" xmlns="http://www.w3.org/2000/svg">
  <defs>
    <linearGradient id="bg" x1="0" y1="0" x2="1" y2="1">
      <stop offset="0%" stop-color="#f7f6f2"/>
      <stop offset="100%" stop-color="#ece8dc"/>
    </linearGradient>
  </defs>
  <rect width="1280" height="720" fill="url(#bg)"/>
  <rect x="28" y="24" width="1224" height="68" rx="14" fill="#1f2a44"/>
  <text x="52" y="66" font-family="Verdana, sans-serif" font-size="28" fill="#ffffff">Student Admin Dashboard</text>

  <rect x="28" y="110" width="320" height="582" rx="14" fill="#ffffff" stroke="#d9d2c0"/>
  <text x="52" y="148" font-family="Verdana, sans-serif" font-size="22" fill="#2d3748">Filters</text>
  <rect x="52" y="170" width="272" height="44" rx="8" fill="#f4f5f7" stroke="#d6dae0"/>
  <text x="66" y="198" font-family="Verdana, sans-serif" font-size="15" fill="#6b7280">Search by name...</text>
  <rect x="52" y="230" width="132" height="38" rx="8" fill="#f4f5f7" stroke="#d6dae0"/>
  <text x="66" y="254" font-family="Verdana, sans-serif" font-size="14" fill="#6b7280">Batch</text>
  <rect x="192" y="230" width="132" height="38" rx="8" fill="#f4f5f7" stroke="#d6dae0"/>
  <text x="206" y="254" font-family="Verdana, sans-serif" font-size="14" fill="#6b7280">Attendance</text>
  <rect x="52" y="282" width="272" height="40" rx="8" fill="#1f2a44"/>
  <text x="164" y="307" text-anchor="middle" font-family="Verdana, sans-serif" font-size="14" fill="#ffffff">Apply Filters</text>

  <rect x="368" y="110" width="884" height="582" rx="14" fill="#ffffff" stroke="#d9d2c0"/>
  <text x="392" y="148" font-family="Verdana, sans-serif" font-size="22" fill="#2d3748">Students</text>

  <rect x="392" y="170" width="404" height="132" rx="12" fill="#f8fafc" stroke="#d6dae0"/>
  <text x="416" y="202" font-family="Verdana, sans-serif" font-size="18" fill="#111827">Arun Kumar</text>
  <text x="416" y="228" font-family="Verdana, sans-serif" font-size="14" fill="#4b5563">Batch: React-2026-A</text>
  <text x="416" y="250" font-family="Verdana, sans-serif" font-size="14" fill="#4b5563">Email: arun@mail.com</text>
  <rect x="676" y="184" width="96" height="28" rx="14" fill="#d1fae5"/>
  <text x="724" y="203" text-anchor="middle" font-family="Verdana, sans-serif" font-size="12" fill="#065f46">92% Attend</text>

  <rect x="392" y="320" width="404" height="132" rx="12" fill="#f8fafc" stroke="#d6dae0"/>
  <text x="416" y="352" font-family="Verdana, sans-serif" font-size="18" fill="#111827">Meena Raj</text>
  <text x="416" y="378" font-family="Verdana, sans-serif" font-size="14" fill="#4b5563">Batch: React-2026-B</text>
  <text x="416" y="400" font-family="Verdana, sans-serif" font-size="14" fill="#4b5563">Email: meena@mail.com</text>
  <rect x="676" y="334" width="96" height="28" rx="14" fill="#fee2e2"/>
  <text x="724" y="353" text-anchor="middle" font-family="Verdana, sans-serif" font-size="12" fill="#991b1b">68% Attend</text>

  <rect x="820" y="170" width="408" height="282" rx="12" fill="#fff7ed" stroke="#fed7aa"/>
  <text x="844" y="202" font-family="Verdana, sans-serif" font-size="19" fill="#9a3412">Details Panel</text>
  <text x="844" y="236" font-family="Verdana, sans-serif" font-size="14" fill="#7c2d12">Selected student full profile appears here.</text>
  <text x="844" y="260" font-family="Verdana, sans-serif" font-size="14" fill="#7c2d12">Include progress chart and action buttons.</text>

  <rect x="820" y="468" width="408" height="204" rx="12" fill="#f0f9ff" stroke="#bae6fd"/>
  <text x="844" y="500" font-family="Verdana, sans-serif" font-size="19" fill="#075985">Quick Actions</text>
  <rect x="844" y="520" width="168" height="40" rx="8" fill="#0ea5e9"/>
  <text x="928" y="545" text-anchor="middle" font-family="Verdana, sans-serif" font-size="14" fill="#ffffff">Email Student</text>
  <rect x="1028" y="520" width="176" height="40" rx="8" fill="#1f2a44"/>
  <text x="1116" y="545" text-anchor="middle" font-family="Verdana, sans-serif" font-size="14" fill="#ffffff">Mark Attendance</text>
</svg>
